<svg xmlns="http://www.w3.org/2000/svg" width="172" height="38" viewBox="0 0 172 38">
<path fill="#fc5d19" d="m 123.8,2 c -1.1,0 -2.1,0.96 -2.1,2.14 0,1.18 1,2.14 2.1,2.14 1.2,0 2.2,-0.96 2.2,-2.14 C 126,2.96 125,2 123.8,2 Z m 39,0.21 C 156.5,2.2 150,3.56 144.6,6.7 c -6.8,4.07 -10.8,13.13 -12.4,21.42 -0.1,0.67 0.1,0.98 0.4,1.43 0.4,0.61 0.9,0.49 1,0.13 6.3,-21.13 25.3,-21.82 25.4,-21.82 0.2,-0.01 0.2,0.21 0,0.26 -7.4,2.43 -13.8,6.92 -18.7,12.78 -0.4,0.43 0.1,0.75 0.4,0.64 4.5,-1.65 7.2,0.83 12.5,-1.15 3.4,-1.25 4.8,-3.77 5.2,-4.62 0.2,-0.39 0.4,-0.86 0,-1.08 -1,-0.59 -2.9,-0.07 -3,-0.28 -0.2,-0.27 1.2,-0.52 2.2,-0.55 11.2,-0.34 14.1,-9.39 14.3,-9.81 0.2,-0.66 0,-0.86 -0.7,-1.01 -2.7,-0.54 -5.5,-0.82 -8.4,-0.83 z m -39,0.07 c 1.1,0 1.9,0.83 1.9,1.86 0,1.03 -0.8,1.87 -1.9,1.87 -1,0 -1.8,-0.84 -1.8,-1.87 0,-1.03 0.8,-1.86 1.8,-1.86 z m -0.9,0.69 0,2.34 0.3,0 0,-1.04 0.4,0 c 0.3,0 0.4,0.15 0.7,0.55 l 0.3,0.49 0.4,0 -0.4,-0.63 c -0.1,-0.15 -0.3,-0.33 -0.5,-0.43 0.2,0.01 0.7,-0.19 0.7,-0.64 -0.1,-0.39 -0.2,-0.64 -0.9,-0.64 l -1,0 z M 0,3 0,6 10.5,6 C 13.98,6.01 17,7 17,11.92 17,18 12.5,18 9.014,18 L 4,18 4,10 0,10 0,21 9.914,21 c 6.586,0 11.04,-2.71 11.09,-9 -0.09,-6.26 -5.11,-8.96 -10.01,-9 L 0.004,3 Z m 27,0 0,3 18,0 0,-3 -18,0 z m 25,0 0,3 12,0 -13,13 0,2 19,0 0,-3 L 57,18 70,5 70,3 52,3 Z M 77.01,3 77,21 90.97,21.02 C 95,21 96,20 96,16 96,13 96,12 93,11.5 95,11 95.75,10 95.75,8 l 0,-1 C 95.75,4 94.26,3 91.6,3 L 77.01,3 Z m 34.99,0 -10,18 4,0 7.8,-13.95 3.8,6.95 -4.6,0 -2,3 8.3,0 2.2,4 4.5,0 -10,-18 -4,0 z m 11.2,0.23 0.8,0 c 0.1,0 0.5,0.05 0.5,0.38 C 124.4,3.86 124.3,4 123.9,4 l -0.7,0 0,-0.77 z M 81,6 90,6 c 2,0 2,1 2,2 0,1 0,2 -2,2 l -6,0 0,3 6,0 c 2,0 2,1 2,2.5 0,1.5 0,2.5 -2,2.5 l -9,0 0,-12 z m -54,4 0,11.02 18,0 0,-3.02 -14,0 0,-5 8,0 0,-3 -12,0 z m 140.8,1.42 c -1.1,0 -2.1,0.96 -2.1,2.14 0,1.18 1,2.14 2.1,2.14 1.2,0 2.2,-0.96 2.2,-2.14 0,-1.18 -1,-2.14 -2.2,-2.14 z m 0,0.28 c 1.1,0 1.9,0.83 1.9,1.86 0,1.03 -0.8,1.87 -1.9,1.87 -1,0 -1.8,-0.84 -1.8,-1.87 0,-1.03 0.8,-1.86 1.8,-1.86 z m -0.9,0.69 0,2.34 0.3,0 0,-1.04 0.4,0 c 0.3,0 0.4,0.15 0.7,0.55 l 0.3,0.49 0.4,0 -0.4,-0.63 c -0.1,-0.15 -0.3,-0.33 -0.5,-0.43 0.2,0.01 0.7,-0.19 0.7,-0.64 -0.1,-0.39 -0.2,-0.64 -0.9,-0.64 l -1,0 z m 0.3,0.26 0.7,0 c 0.2,0 0.6,0.05 0.6,0.38 -0.1,0.25 -0.2,0.39 -0.6,0.39 l -0.7,0 0,-0.77 z" />
<path fill="#666" d="m 0,25 0,7 3.3261719,0 c 0.8524182,0 1.5238494,-0.170329 2.0136719,-0.511719 0.4961833,-0.346339 0.7441406,-0.822162 0.7441406,-1.425781 0,-0.811791 -0.3559433,-1.370381 -1.0644532,-1.675781 0.00598,-0.004 0.013627,-0.0056 0.019531,-0.0098 C 5.5352458,28.030612 5.7832031,27.55479 5.7832031,26.951172 5.7832044,25.649924 4.8720719,25 3.0527344,25 L 0,25 Z m 7.7890625,0 0,7 5.2421875,0 0,-0.970703 -4.0566406,0 0,-2.029297 3.5253906,0 0,-1 -3.5253906,0 0,-2 3.9960936,0 0,-1 -5.1816405,0 z M 15,25 l 0,1 2.400391,0 0,6 1.199218,0 0,-6 L 21,26 21,25 15,25 Z M 24.449219,25 21,32 l 1.25,0 0.496094,-1 4.507812,0 0.496094,1 1.25,0 -3.449219,-7 -1.101562,0 z m -23.2988284,1 1.8320313,0 c 1.0916038,0 1.6367187,0.334695 1.6367187,1.003906 0,0.310433 -0.1476023,0.554304 -0.4453125,0.732422 C 3.879936,27.9119 3.4762943,28 2.9648438,28 l -1.8144532,0 0,-2 z M 25,26.449219 26.759766,30 23.240234,30 25,26.449219 Z M 1.1503906,29 3.2832031,29 c 1.0916027,0 1.6367188,0.334695 1.6367188,1.003906 0,0.310434 -0.1476023,0.554304 -0.4453125,0.732422 C 4.1807162,30.9119 3.7770755,31 3.265625,31 l -2.1152344,0 0,-2 z" />
</svg>